<svg width="724" height="539" viewBox="0 0 724 539" fill="none" xmlns="http://www.w3.org/2000/svg">
    <path d="M695.699 534.562L683.329 534.654C674.61 534.721 662.259 534.809 647.002 534.914C643.398 534.947 639.627 534.972 635.711 534.997C630.132 535.043 624.244 535.085 618.072 535.131L598.599 535.269C417.119 536.575 50.4436 539.098 50.1687 538.11L50.1126 537.955C50.1126 537.955 50.0511 537.801 50.0511 537.721C49.8188 537.089 -73.5903 354.294 70.2951 229.422C126.593 180.565 74.758 158.331 120.702 106.228C161.387 60.0779 210.447 69.9731 255.426 79.8683C288.432 87.1275 319.242 94.3869 342.931 79.5043C500.987 -19.8118 561.825 -4.39787 608.175 12.7608C615.105 15.3298 623.397 20.5054 631.697 27.8902C644.248 39.049 656.829 55.2495 664.778 75.0943C676.186 103.571 678.05 139.553 656.597 178.9C656.171 179.682 655.763 180.481 655.386 181.289C644.448 204.464 652.206 237.367 665.563 270.057C674.12 290.994 684.966 311.839 694.671 329.985C759.221 450.673 696.279 532.981 695.699 534.562Z" fill="#EAFDF4"/>
    </svg>
    